<svg width="75" height="74" viewBox="0 0 75 74" fill="none" xmlns="http://www.w3.org/2000/svg">
<ellipse cx="37.5" cy="37.2354" rx="37.5" ry="36.7647" fill="#F0998D"/>
<path d="M31.0861 14.8569V22.244C31.0861 22.244 25.2946 22.6818 25.3875 27.893C25.3159 29.2574 25.7732 30.598 26.6677 31.6457C27.5622 32.6934 28.8277 33.3708 30.2103 33.5419H44.2373C44.2373 33.5419 56.6936 33.7217 56.5136 47.4478C56.3614 58.7949 43.3566 59.614 43.3566 59.614V52.2269C43.3566 52.2269 48.8726 51.7859 49.0552 47.0133C49.14 46.2362 49.0549 45.4502 48.8055 44.7079C48.5561 43.9656 48.1482 43.2839 47.609 42.7082C47.0698 42.1326 46.4116 41.6762 45.6784 41.3696C44.9451 41.0629 44.1536 40.913 43.3566 40.9298H29.7712C29.7712 40.9298 17.8272 39.8584 17.9341 27.893C18.0393 16.1549 28.9193 14.8803 31.0861 14.8569Z" fill="white"/>
</svg>
